<svg xmlns="http://www.w3.org/2000/svg" width="48" height="48" viewBox="0 0 48 48"><g transform="translate(-883 1725)"><rect width="48" height="48" transform="translate(883 -1725)" fill="none"/><path d="M32,0H16L0,18,16,36H32L48,18ZM24.006,27,16,18l8.007-9,8,9Z" transform="translate(883 -1719)" fill="#fff" opacity="0.75"/><path d="M107.311,18l-16-18h-16l16,18Z" transform="translate(823.689 -1719)" fill="#003f7f" opacity="0.75"/><path d="M0,18,16,0H32L16,18Z" transform="translate(883 -1719)" fill="#2aaeff" opacity="0.75"/><path d="M75.31,102.731l16-18h16l-16,18Z" transform="translate(823.689 -1785.729)" fill="#2aaeff" opacity="0.75"/><path d="M32,102.731l-16-18H0l16,18Z" transform="translate(883 -1785.729)" fill="#003f7f" opacity="0.75"/></g></svg>